%
M48
M72
T01C0.02362
T02C0.03200
T03C0.03543
T04C0.03937
T05C0.05906
T06C0.07900
T07C0.12598
%
T01
X36217Y105390
X57871Y117201
X53934Y121138
X67713Y129012
X213383Y138854
X266532Y132949
X266532Y121138
X270469Y117201
X305902Y129012
X424012Y127043
X451572Y136886
X483068Y129012
X455509Y115232
X471257Y105390
X526375Y113264
X542123Y121138
X546060Y117201
X544091Y127043
X544091Y134917
X573619Y129012
X620863Y129012
X634642Y132949
X652359Y136886
X668107Y152634
X650390Y172319
X636611Y170350
X605115Y162476
X593304Y168382
X621709Y184858
X622831Y193972
X646709Y184858
X674012Y180193
X683855Y197909
X701572Y188067
X646709Y207358
X660233Y221531
X640548Y229406
X622831Y219563
X683855Y219563
X772438Y239248
X827556Y254996
X843304Y254996
X841335Y247122
X841335Y239248
X866926Y245154
X892516Y253028
X884642Y260902
X862989Y264839
X855115Y268776
X851178Y272713
X847241Y276650
X815745Y290429
X811808Y296335
X815745Y308146
X798028Y310114
X796060Y292398
X776375Y288461
X760627Y278618
X786217Y270744
X794091Y274681
X801965Y276650
X807871Y266807
X758658Y298303
X762595Y302240
X758658Y306177
X798028Y335705
X839367Y310114
X868894Y316020
X878737Y308146
X890548Y312083
X878737Y325862
X859052Y331768
X872831Y341610
X817713Y369169
X809839Y404602
X831493Y424287
X813776Y434130
X837398Y445941
X823619Y451846
X815745Y449878
X831493Y463657
X839367Y455783
X843304Y459720
X861020Y459720
X866926Y455783
X853146Y475469
X807871Y471531
X782280Y440035
X752753Y440035
X733068Y442004
X632674Y440035
X599209Y442004
X603146Y463657
X607083Y469563
X587398Y471531
X536217Y469563
X544091Y445941
X536217Y442004
X508658Y443972
X351178Y445941
X327556Y455783
X331493Y459720
X327556Y469563
X303934Y451846
X321650Y443972
X266532Y447909
X126768Y445941
X111020Y455783
X114957Y459720
X73619Y455783
X59839Y434130
X38186Y394760
X95272Y316020
X103146Y302240
X97241Y272713
X81493Y237280
X238973Y272713
X246847Y298303
X250784Y302240
X246847Y306177
X231099Y302240
X299997Y290429
X317713Y276650
X333461Y274681
X333461Y323894
X483068Y314051
X483068Y306177
X487005Y302240
X483068Y298303
X500784Y288461
X479131Y276650
X524406Y247122
X544091Y251059
X593304Y262870
X605115Y268776
X571650Y290429
X620863Y310114
X601178Y312083
X553934Y312083
X538186Y314051
X514564Y312083
X823619Y209720
X872831Y229406
X894485Y225469
X908264Y229406
X916709Y227358
X941729Y239248
X947635Y254996
X976473Y272713
X990942Y262870
X1012595Y262870
X1020469Y270744
X1028343Y278618
X1014564Y280587
X1016532Y290429
X994879Y298303
X998816Y302240
X994879Y306177
X998816Y316020
X1020469Y304209
X994879Y278618
X1044091Y253028
X969288Y213657
X955509Y213657
X949603Y199878
X936709Y207358
X934209Y212358
X901709Y209858
X902359Y195941
X912201Y178224
X919209Y169858
X919209Y162358
X900390Y166413
X886611Y176256
X844209Y162358
X829209Y157358
X821709Y159858
X827556Y148697
X846709Y152358
X864209Y152358
X881709Y152358
X899209Y152358
X902359Y146728
X919209Y147358
X920075Y140823
X933855Y130980
X957477Y127043
X967320Y125075
X990942Y127043
X992910Y121138
X987005Y115232
X967320Y115232
X959446Y115232
X1016532Y125075
X1026375Y130980
X1030312Y140823
X1028343Y148697
X1010627Y166413
X1010627Y174287
X1002753Y188067
X1012595Y193972
X1040154Y178224
X956709Y164858
X900390Y127043
X861020Y130980
X846709Y127358
X813776Y125075
X805902Y136886
X784249Y130980
X778343Y135449
X782280Y141354
X756709Y124858
X773343Y116138
X777280Y112201
X792123Y101453
X829524Y170350
X557871Y101453
X518501Y134917
X532280Y156571
X530312Y164445
X939760Y388854
X927949Y396728
X1020469Y447909
X1014564Y459720
X1026375Y461689
X1042123Y467594
T02
X554997Y367201
X544997Y367201
X531375Y209720
X521375Y209720
X666709Y189858
X676709Y189858
T03
X901709Y247358
X911709Y247358
X921709Y247358
X921709Y257358
X911709Y257358
X901709Y257358
T04
X1044091Y263854
X1044091Y281571
X1044091Y242201
X1044091Y224484
X1032280Y186886
X1032280Y169563
X689209Y167516
X689209Y187201
T05
X1034249Y219563
X1034249Y247122
X1034249Y258933
X1034249Y286492
T06
X656709Y152358
X624209Y157358
X614209Y204858
X629209Y237358
T07
X1034249Y111295
X42123Y465626
M30
