G75*
%MOIN*%
%OFA0B0*%
%FSLAX25Y25*%
%IPPOS*%
%LPD*%
%AMOC8*
5,1,8,0,0,1.08239X$1,22.5*
%
%ADD10C,0.13398*%
%ADD11R,0.06706X0.05918*%
%ADD12C,0.06737*%
%ADD13R,0.05918X0.06706*%
%ADD14C,0.04737*%
%ADD15R,0.08800X0.03400*%
%ADD16R,0.09500X0.03200*%
%ADD17C,0.07200*%
%ADD18OC8,0.06000*%
%ADD19C,0.06000*%
%ADD20R,0.04737X0.06312*%
%ADD21C,0.09658*%
%ADD22OC8,0.13200*%
%ADD23C,0.04762*%
D10*
X1034249Y0111295D03*
X0042123Y0465626D03*
D11*
X0549209Y0343598D03*
X0549209Y0336118D03*
X0876709Y0256098D03*
X0876709Y0248618D03*
X0666709Y0181098D03*
X0666709Y0173618D03*
X0526709Y0176118D03*
X0526709Y0183598D03*
D12*
X0689209Y0187201D03*
X0689209Y0167516D03*
X1044091Y0224484D03*
X1044091Y0242201D03*
X1044091Y0263854D03*
X1044091Y0281571D03*
D13*
X0867949Y0222358D03*
X0860469Y0222358D03*
X0860469Y0214858D03*
X0867949Y0214858D03*
X0867949Y0207358D03*
X0860469Y0207358D03*
X0860469Y0199858D03*
X0867949Y0199858D03*
X0867949Y0192358D03*
X0860469Y0192358D03*
X0860469Y0184858D03*
X0867949Y0184858D03*
X0867949Y0177358D03*
X0860469Y0177358D03*
X0860449Y0139858D03*
X0852969Y0139858D03*
X0842949Y0139858D03*
X0835469Y0139858D03*
X0837949Y0127358D03*
X0830469Y0127358D03*
X0870469Y0139858D03*
X0877949Y0139858D03*
X0887969Y0139858D03*
X0895449Y0139858D03*
X0960469Y0172358D03*
X0967949Y0172358D03*
X0655449Y0227358D03*
X0647969Y0227358D03*
D14*
X1032280Y0186886D03*
X1032280Y0169563D03*
D15*
X0911309Y0184858D03*
X0911309Y0189858D03*
X0911309Y0194858D03*
X0911309Y0199858D03*
X0911309Y0204858D03*
X0911309Y0209858D03*
X0911309Y0214858D03*
X0911309Y0219858D03*
X0887109Y0219858D03*
X0887109Y0214858D03*
X0887109Y0209858D03*
X0887109Y0204858D03*
X0887109Y0199858D03*
X0887109Y0194858D03*
X0887109Y0189858D03*
X0887109Y0184858D03*
X0656309Y0184858D03*
X0656309Y0179858D03*
X0656309Y0189858D03*
X0656309Y0194858D03*
X0656309Y0199858D03*
X0656309Y0204858D03*
X0656309Y0209858D03*
X0656309Y0214858D03*
X0632109Y0214858D03*
X0632109Y0209858D03*
X0632109Y0204858D03*
X0632109Y0199858D03*
X0632109Y0194858D03*
X0632109Y0189858D03*
X0632109Y0184858D03*
X0632109Y0179858D03*
D16*
X0910959Y0172358D03*
X0910959Y0167358D03*
X0910959Y0162358D03*
X0910959Y0157358D03*
X0910959Y0152358D03*
X0910959Y0147358D03*
X0910959Y0142358D03*
X0910959Y0137358D03*
X0910959Y0132358D03*
X0910959Y0127358D03*
X0947359Y0127358D03*
X0947459Y0132358D03*
X0947459Y0137358D03*
X0947459Y0142358D03*
X0947459Y0147358D03*
X0947459Y0152358D03*
X0947459Y0157358D03*
X0947459Y0162358D03*
X0947459Y0167358D03*
X0947459Y0172358D03*
D17*
X0921709Y0247358D03*
X0911709Y0247358D03*
X0901709Y0247358D03*
X0901709Y0257358D03*
X0911709Y0257358D03*
X0921709Y0257358D03*
D18*
X0554997Y0367201D03*
X0544997Y0367201D03*
X0531375Y0209720D03*
X0521375Y0209720D03*
D19*
X0666709Y0189858D03*
X0676709Y0189858D03*
D20*
X0835469Y0148028D03*
X0842949Y0148028D03*
X0839209Y0156689D03*
X0852969Y0148028D03*
X0860449Y0148028D03*
X0856709Y0156689D03*
X0870469Y0148028D03*
X0877949Y0148028D03*
X0874209Y0156689D03*
X0887969Y0148028D03*
X0895449Y0148028D03*
X0891709Y0156689D03*
D21*
X1034249Y0219563D03*
X1034249Y0247122D03*
X1034249Y0258933D03*
X1034249Y0286492D03*
D22*
X0656709Y0152358D03*
X0624209Y0157358D03*
X0614209Y0204858D03*
X0629209Y0237358D03*
D23*
X0036217Y0105390D03*
X0057871Y0117201D03*
X0053934Y0121138D03*
X0067713Y0129012D03*
X0213383Y0138854D03*
X0266532Y0132949D03*
X0266532Y0121138D03*
X0270469Y0117201D03*
X0305902Y0129012D03*
X0424012Y0127043D03*
X0451572Y0136886D03*
X0483068Y0129012D03*
X0455509Y0115232D03*
X0471257Y0105390D03*
X0526375Y0113264D03*
X0542123Y0121138D03*
X0546060Y0117201D03*
X0544091Y0127043D03*
X0544091Y0134917D03*
X0573619Y0129012D03*
X0620863Y0129012D03*
X0634642Y0132949D03*
X0652359Y0136886D03*
X0668107Y0152634D03*
X0650390Y0172319D03*
X0636611Y0170350D03*
X0605115Y0162476D03*
X0593304Y0168382D03*
X0621709Y0184858D03*
X0622831Y0193972D03*
X0646709Y0184858D03*
X0674012Y0180193D03*
X0683855Y0197909D03*
X0701572Y0188067D03*
X0646709Y0207358D03*
X0660233Y0221531D03*
X0640548Y0229406D03*
X0622831Y0219563D03*
X0683855Y0219563D03*
X0772438Y0239248D03*
X0827556Y0254996D03*
X0843304Y0254996D03*
X0841335Y0247122D03*
X0841335Y0239248D03*
X0866926Y0245154D03*
X0892516Y0253028D03*
X0884642Y0260902D03*
X0862989Y0264839D03*
X0855115Y0268776D03*
X0851178Y0272713D03*
X0847241Y0276650D03*
X0815745Y0290429D03*
X0811808Y0296335D03*
X0815745Y0308146D03*
X0798028Y0310114D03*
X0796060Y0292398D03*
X0776375Y0288461D03*
X0760627Y0278618D03*
X0786217Y0270744D03*
X0794091Y0274681D03*
X0801965Y0276650D03*
X0807871Y0266807D03*
X0758658Y0298303D03*
X0762595Y0302240D03*
X0758658Y0306177D03*
X0798028Y0335705D03*
X0839367Y0310114D03*
X0868894Y0316020D03*
X0878737Y0308146D03*
X0890548Y0312083D03*
X0878737Y0325862D03*
X0859052Y0331768D03*
X0872831Y0341610D03*
X0817713Y0369169D03*
X0809839Y0404602D03*
X0831493Y0424287D03*
X0813776Y0434130D03*
X0837398Y0445941D03*
X0823619Y0451846D03*
X0815745Y0449878D03*
X0831493Y0463657D03*
X0839367Y0455783D03*
X0843304Y0459720D03*
X0861020Y0459720D03*
X0866926Y0455783D03*
X0853146Y0475469D03*
X0807871Y0471531D03*
X0782280Y0440035D03*
X0752753Y0440035D03*
X0733068Y0442004D03*
X0632674Y0440035D03*
X0599209Y0442004D03*
X0603146Y0463657D03*
X0607083Y0469563D03*
X0587398Y0471531D03*
X0536217Y0469563D03*
X0544091Y0445941D03*
X0536217Y0442004D03*
X0508658Y0443972D03*
X0351178Y0445941D03*
X0327556Y0455783D03*
X0331493Y0459720D03*
X0327556Y0469563D03*
X0303934Y0451846D03*
X0321650Y0443972D03*
X0266532Y0447909D03*
X0126768Y0445941D03*
X0111020Y0455783D03*
X0114957Y0459720D03*
X0073619Y0455783D03*
X0059839Y0434130D03*
X0038186Y0394760D03*
X0095272Y0316020D03*
X0103146Y0302240D03*
X0097241Y0272713D03*
X0081493Y0237280D03*
X0238973Y0272713D03*
X0246847Y0298303D03*
X0250784Y0302240D03*
X0246847Y0306177D03*
X0231099Y0302240D03*
X0299997Y0290429D03*
X0317713Y0276650D03*
X0333461Y0274681D03*
X0333461Y0323894D03*
X0483068Y0314051D03*
X0483068Y0306177D03*
X0487005Y0302240D03*
X0483068Y0298303D03*
X0500784Y0288461D03*
X0479131Y0276650D03*
X0524406Y0247122D03*
X0544091Y0251059D03*
X0593304Y0262870D03*
X0605115Y0268776D03*
X0571650Y0290429D03*
X0620863Y0310114D03*
X0601178Y0312083D03*
X0553934Y0312083D03*
X0538186Y0314051D03*
X0514564Y0312083D03*
X0823619Y0209720D03*
X0872831Y0229406D03*
X0894485Y0225469D03*
X0908264Y0229406D03*
X0916709Y0227358D03*
X0941729Y0239248D03*
X0947635Y0254996D03*
X0976473Y0272713D03*
X0990942Y0262870D03*
X1012595Y0262870D03*
X1020469Y0270744D03*
X1028343Y0278618D03*
X1014564Y0280587D03*
X1016532Y0290429D03*
X0994879Y0298303D03*
X0998816Y0302240D03*
X0994879Y0306177D03*
X0998816Y0316020D03*
X1020469Y0304209D03*
X0994879Y0278618D03*
X1044091Y0253028D03*
X0969288Y0213657D03*
X0955509Y0213657D03*
X0949603Y0199878D03*
X0936709Y0207358D03*
X0934209Y0212358D03*
X0901709Y0209858D03*
X0902359Y0195941D03*
X0912201Y0178224D03*
X0919209Y0169858D03*
X0919209Y0162358D03*
X0900390Y0166413D03*
X0886611Y0176256D03*
X0844209Y0162358D03*
X0829209Y0157358D03*
X0821709Y0159858D03*
X0827556Y0148697D03*
X0846709Y0152358D03*
X0864209Y0152358D03*
X0881709Y0152358D03*
X0899209Y0152358D03*
X0902359Y0146728D03*
X0919209Y0147358D03*
X0920075Y0140823D03*
X0933855Y0130980D03*
X0957477Y0127043D03*
X0967320Y0125075D03*
X0990942Y0127043D03*
X0992910Y0121138D03*
X0987005Y0115232D03*
X0967320Y0115232D03*
X0959446Y0115232D03*
X1016532Y0125075D03*
X1026375Y0130980D03*
X1030312Y0140823D03*
X1028343Y0148697D03*
X1010627Y0166413D03*
X1010627Y0174287D03*
X1002753Y0188067D03*
X1012595Y0193972D03*
X1040154Y0178224D03*
X0956709Y0164858D03*
X0900390Y0127043D03*
X0861020Y0130980D03*
X0846709Y0127358D03*
X0813776Y0125075D03*
X0805902Y0136886D03*
X0784249Y0130980D03*
X0778343Y0135449D03*
X0782280Y0141354D03*
X0756709Y0124858D03*
X0773343Y0116138D03*
X0777280Y0112201D03*
X0792123Y0101453D03*
X0829524Y0170350D03*
X0557871Y0101453D03*
X0518501Y0134917D03*
X0532280Y0156571D03*
X0530312Y0164445D03*
X0939760Y0388854D03*
X0927949Y0396728D03*
X1020469Y0447909D03*
X1014564Y0459720D03*
X1026375Y0461689D03*
X1042123Y0467594D03*
M02*
